<svg width="1248" height="625" viewBox="0 0 1248 625" fill="none" xmlns="http://www.w3.org/2000/svg">
<path d="M111.982 180.407H163.95C174.034 180.407 182.213 176.311 182.213 171.261C182.213 166.206 174.034 162.11 163.95 162.11H111.982C101.889 162.11 93.7104 166.206 93.7104 171.261C93.7104 176.311 101.889 180.407 111.982 180.407Z" fill="#8C43FF"/>
<path d="M539.221 162.11H222.146C212.062 162.11 203.884 166.206 203.884 171.261C203.884 176.311 212.062 180.407 222.146 180.407H539.221C549.313 180.407 557.492 176.311 557.492 171.261C557.492 166.206 549.313 162.11 539.221 162.11Z" fill="#8C43FF"/>
<path d="M491.061 208.478H375.108C365.016 208.478 356.837 212.569 356.837 217.624C356.837 222.678 365.016 226.769 375.108 226.769H491.061C501.144 226.769 509.323 222.678 509.323 217.624C509.323 212.569 501.144 208.478 491.061 208.478Z" fill="#8C43FF"/>
<path d="M314.457 208.478H278.313C268.23 208.478 260.051 212.569 260.051 217.624C260.051 222.678 268.23 226.769 278.313 226.769H314.457C324.549 226.769 332.728 222.678 332.728 217.624C332.728 212.569 324.549 208.478 314.457 208.478Z" fill="#8C43FF"/>
<path d="M220.146 208.478H111.982C101.889 208.478 93.7104 212.569 93.7104 217.624C93.7104 222.678 101.889 226.769 111.982 226.769H220.146C230.23 226.769 238.408 222.678 238.408 217.624C238.408 212.569 230.23 208.478 220.146 208.478Z" fill="#8C43FF"/>
<path d="M81.104 61.9555C81.104 76.7565 105.146 88.7966 134.7 88.7966C164.255 88.7966 188.306 76.7565 188.306 61.9555C188.306 47.1544 164.255 35.1095 134.7 35.1095C105.146 35.1095 81.104 47.1544 81.104 61.9555ZM151.772 61.9555C151.772 66.6666 144.108 70.5051 134.7 70.5051C125.284 70.5051 117.628 66.6666 117.628 61.9555C117.628 57.2395 125.284 53.4058 134.7 53.4058C144.108 53.4058 151.772 57.2395 151.772 61.9555Z" fill="#8C43FF"/>
<path d="M217.566 61.9555C217.566 76.7565 241.617 88.7966 271.172 88.7966C300.727 88.7966 324.768 76.7565 324.768 61.9555C324.768 47.1544 300.727 35.1095 271.172 35.1095C241.617 35.1095 217.566 47.1544 217.566 61.9555ZM288.234 61.9555C288.234 66.6666 280.579 70.5051 271.162 70.5051C261.755 70.5051 254.09 66.6666 254.09 61.9555C254.09 57.2395 261.755 53.4058 271.162 53.4058C280.579 53.4058 288.234 57.2395 288.234 61.9555Z" fill="#8C43FF"/>
<path d="M354.037 61.9555C354.037 76.7565 378.079 88.7966 407.634 88.7966C437.188 88.7966 461.23 76.7565 461.23 61.9555C461.23 47.1544 437.188 35.1095 407.634 35.1095C378.079 35.1095 354.037 47.1544 354.037 61.9555ZM424.706 61.9555C424.706 66.6666 417.051 70.5051 407.634 70.5051C398.227 70.5051 390.562 66.6666 390.562 61.9555C390.562 57.2395 398.227 53.4058 407.634 53.4058C417.051 53.4058 424.706 57.2395 424.706 61.9555Z" fill="#8C43FF"/>
<path d="M1015.11 601.463H1076.08C1086.16 601.463 1094.34 597.367 1094.34 592.318C1094.34 587.263 1086.16 583.167 1076.08 583.167H1015.11C1005.02 583.167 996.842 587.263 996.842 592.318C996.842 597.367 1005.02 601.463 1015.11 601.463Z" fill="#8C43FF"/>
<path d="M1009.8 285.463H988.778C978.694 285.463 970.515 289.555 970.515 294.609C970.515 299.664 978.694 303.755 988.778 303.755H1009.8C1019.89 303.755 1028.07 299.664 1028.07 294.609C1028.07 289.555 1019.89 285.463 1009.8 285.463Z" fill="#8C43FF"/>
<path d="M1102.41 285.463H1061.09C1051.01 285.463 1042.83 289.555 1042.83 294.609C1042.83 299.664 1051.01 303.755 1061.09 303.755H1102.41C1112.49 303.755 1120.67 299.664 1120.67 294.609C1120.67 289.555 1112.49 285.463 1102.41 285.463Z" fill="#8C43FF"/>
<path d="M1246.61 40.2594C1246.61 18.0626 1210.55 0 1166.23 0H1010.4C1000.31 0 992.139 4.09603 992.139 9.14574C992.139 14.2002 1000.31 18.2962 1010.4 18.2962H1166.23C1190.41 18.2962 1210.09 28.1477 1210.09 40.2594V106.13H36.5339V40.2594C36.5339 28.1477 56.2053 18.2962 80.3899 18.2962H896.752C906.845 18.2962 915.015 14.2002 915.015 9.14574C915.015 4.09603 906.845 0 896.752 0H80.3899C36.0579 0 0 18.0626 0 40.2594V482.845C0 505.042 36.0579 523.105 80.3899 523.105H435.789V555.906H380.64C343.849 555.906 313.923 570.898 313.923 589.318V609.078C313.923 617.485 327.577 624.328 344.364 624.328L1190.87 624.886C1222.38 624.886 1248 612.049 1248 596.275V567.336L1246.61 40.2594ZM80.3899 504.808C56.2053 504.808 36.5339 494.957 36.5339 482.845V448.151H843.185V504.808H80.3899ZM810.821 523.105H843.185V555.906H810.821V523.105ZM774.297 523.105V555.906H472.313V523.105H774.297ZM350.448 606.031V589.318C350.448 580.988 363.997 574.203 380.64 574.203H843.185V596.275C843.185 599.699 844.394 602.984 846.612 606.031H350.448ZM1211.47 596.275C1211.47 601.964 1202.23 606.589 1190.87 606.589H900.313C888.954 606.589 879.719 601.964 879.719 596.275V576.482H1211.47V596.275ZM1211.47 558.186H879.719V398.626C879.719 393.577 871.54 389.481 861.456 389.481C851.364 389.481 843.185 393.577 843.185 398.626V429.854H36.5339V124.426H1210.09V264.401C1204.08 263.324 1197.61 262.733 1190.87 262.733H900.313C868.816 262.733 843.185 275.569 843.185 291.343V342.932C843.185 347.986 851.364 352.077 861.456 352.077C871.54 352.077 879.719 347.986 879.719 342.932V329.432H1211.47V558.186ZM1211.47 311.141H879.719V291.343C879.719 285.659 888.954 281.029 900.313 281.029H1190.87C1202.23 281.029 1211.48 285.659 1211.48 291.343V311.141H1211.47Z" fill="#8C43FF"/>
<path d="M916.567 374.494H983.903C993.986 374.494 1002.16 370.398 1002.16 365.348C1002.16 360.293 993.986 356.197 983.903 356.197H916.567C906.474 356.197 898.304 360.293 898.304 365.348C898.304 370.398 906.474 374.494 916.567 374.494Z" fill="#8C43FF"/>
<path d="M1036.22 374.494H1064.95C1075.03 374.494 1083.21 370.398 1083.21 365.348C1083.21 360.293 1075.03 356.197 1064.95 356.197H1036.22C1026.14 356.197 1017.96 360.293 1017.96 365.348C1017.96 370.398 1026.14 374.494 1036.22 374.494Z" fill="#8C43FF"/>
<path d="M1112.97 374.494H1174.62C1184.71 374.494 1192.89 370.398 1192.89 365.348C1192.89 360.293 1184.71 356.197 1174.62 356.197H1112.97C1102.88 356.197 1094.7 360.293 1094.7 365.348C1094.7 370.398 1102.88 374.494 1112.97 374.494Z" fill="#8C43FF"/>
<path d="M916.567 415.626H946.531C956.624 415.626 964.802 411.53 964.802 406.475C964.802 401.425 956.624 397.329 946.531 397.329H916.567C906.474 397.329 898.304 401.425 898.304 406.475C898.304 411.53 906.474 415.626 916.567 415.626Z" fill="#8C43FF"/>
<path d="M1100.95 406.475C1100.95 401.425 1092.78 397.329 1082.69 397.329H996.928C986.845 397.329 978.666 401.425 978.666 406.475C978.666 411.53 986.845 415.626 996.928 415.626H1082.69C1092.78 415.626 1100.95 411.53 1100.95 406.475Z" fill="#8C43FF"/>
<path d="M1174.62 397.329H1140.75C1130.67 397.329 1122.49 401.425 1122.49 406.475C1122.49 411.53 1130.67 415.626 1140.75 415.626H1174.62C1184.71 415.626 1192.89 411.53 1192.89 406.475C1192.89 401.425 1184.71 397.329 1174.62 397.329Z" fill="#8C43FF"/>
<path d="M916.567 453.467H976.504C986.588 453.467 994.767 449.371 994.767 444.322C994.767 439.267 986.588 435.171 976.504 435.171H916.567C906.474 435.171 898.304 439.267 898.304 444.322C898.304 449.371 906.474 453.467 916.567 453.467Z" fill="#8C43FF"/>
<path d="M1026.52 453.467H1102.41C1112.49 453.467 1120.67 449.371 1120.67 444.322C1120.67 439.267 1112.49 435.171 1102.41 435.171H1026.52C1016.43 435.171 1008.25 439.267 1008.25 444.322C1008.25 449.371 1016.43 453.467 1026.52 453.467Z" fill="#8C43FF"/>
<path d="M1174.62 435.171H1151.31C1141.23 435.171 1133.05 439.267 1133.05 444.322C1133.05 449.371 1141.23 453.467 1151.31 453.467H1174.62C1184.71 453.467 1192.89 449.371 1192.89 444.322C1192.89 439.267 1184.71 435.171 1174.62 435.171Z" fill="#8C43FF"/>
<path d="M916.567 494.599H1008.25C1018.34 494.599 1026.52 490.503 1026.52 485.449C1026.52 480.399 1018.34 476.303 1008.25 476.303H916.567C906.474 476.303 898.304 480.399 898.304 485.449C898.304 490.503 906.474 494.599 916.567 494.599Z" fill="#8C43FF"/>
<path d="M1084.92 476.303H1060.07C1049.99 476.303 1041.81 480.399 1041.81 485.449C1041.81 490.503 1049.99 494.599 1060.07 494.599H1084.92C1095 494.599 1103.18 490.503 1103.18 485.449C1103.18 480.399 1095 476.303 1084.92 476.303Z" fill="#8C43FF"/>
<path d="M1174.62 476.303H1131.33C1121.25 476.303 1113.07 480.399 1113.07 485.449C1113.07 490.503 1121.25 494.599 1131.33 494.599H1174.62C1184.71 494.599 1192.89 490.503 1192.89 485.449C1192.89 480.399 1184.71 476.303 1174.62 476.303Z" fill="#8C43FF"/>
<path d="M96.2 269.68C97.1333 269.653 97.8 269.44 98.2 269.04C98.6 268.64 98.8267 268.173 98.88 267.64C98.9333 267.08 98.96 266.12 98.96 264.76V247.48C98.96 246.36 99 245.4 99.08 244.6L96.2 244.76V243H105.2V244.32C104.267 244.347 103.6 244.56 103.2 244.96C102.8 245.36 102.573 245.84 102.52 246.4C102.467 246.933 102.44 247.88 102.44 249.24V255.88H116.76V247.48C116.76 246.36 116.8 245.4 116.88 244.6L114 244.76V243H123V244.32C122.067 244.347 121.4 244.56 121 244.96C120.6 245.36 120.373 245.84 120.32 246.4C120.267 246.933 120.24 247.88 120.24 249.24V266.24C120.24 267.653 120.2 268.707 120.12 269.4L123 269.24V271H114V269.68C114.933 269.653 115.6 269.44 116 269.04C116.4 268.64 116.627 268.173 116.68 267.64C116.733 267.08 116.76 266.12 116.76 264.76V257.48L102.44 257.64V266.24C102.44 267.653 102.4 268.707 102.32 269.4L105.2 269.24V271H96.2V269.68ZM130.658 246.64C130.098 246.64 129.604 246.413 129.178 245.96C128.751 245.48 128.538 244.92 128.538 244.28C128.538 243.64 128.751 243.08 129.178 242.6C129.631 242.12 130.138 241.88 130.698 241.88C131.311 241.88 131.818 242.12 132.218 242.6C132.644 243.053 132.858 243.613 132.858 244.28C132.858 244.92 132.631 245.48 132.178 245.96C131.751 246.413 131.244 246.64 130.658 246.64ZM126.698 269.8C127.471 269.8 128.018 269.613 128.338 269.24C128.684 268.84 128.884 268.347 128.938 267.76C129.018 267.147 129.058 266.2 129.058 264.92V255.8C129.058 255.027 129.111 254.16 129.218 253.2L126.378 253.36V251.68C127.951 251.68 129.071 251.587 129.738 251.4C130.431 251.213 130.964 250.947 131.338 250.6H132.498V266.76C132.498 267.96 132.444 268.867 132.338 269.48L134.858 269.36V271H126.698V269.8ZM139.828 277.36C140.281 276.773 140.708 275.947 141.108 274.88C141.508 273.813 141.708 272.76 141.708 271.72C141.708 271.4 141.694 271.16 141.668 271C141.321 271.16 140.988 271.24 140.668 271.24C140.134 271.24 139.694 271.053 139.348 270.68C139.001 270.307 138.827 269.84 138.827 269.28C138.827 268.56 139.041 268 139.468 267.6C139.894 267.173 140.414 266.96 141.028 266.96C141.908 266.96 142.601 267.307 143.108 268C143.614 268.667 143.868 269.533 143.868 270.6C143.868 271.693 143.574 273.013 142.988 274.56C142.428 276.107 141.734 277.307 140.908 278.16L139.828 277.36ZM159.013 269.68C159.946 269.653 160.613 269.44 161.013 269.04C161.413 268.64 161.639 268.173 161.693 267.64C161.746 267.08 161.773 266.12 161.773 264.76V247.48C161.773 246.36 161.813 245.4 161.893 244.6L159.013 244.76V243H168.013V244.32C167.079 244.347 166.413 244.56 166.013 244.96C165.613 245.36 165.386 245.84 165.333 246.4C165.279 246.933 165.253 247.88 165.253 249.24V266.24C165.253 267.653 165.213 268.707 165.133 269.4L168.013 269.24V271H159.013V269.68ZM188.079 271.64C186.132 271.64 184.639 271.2 183.599 270.32C182.585 269.44 182.079 268.293 182.079 266.88C182.079 265.333 182.692 264.027 183.919 262.96C185.172 261.893 186.732 261.107 188.599 260.6C190.492 260.067 192.385 259.813 194.279 259.84V257.36C194.279 255.627 194.025 254.28 193.519 253.32C193.012 252.333 191.932 251.84 190.279 251.84C189.452 251.84 188.665 252.013 187.919 252.36C187.172 252.707 186.625 253.227 186.279 253.92C186.625 254.293 186.799 254.8 186.799 255.44C186.799 255.84 186.652 256.227 186.359 256.6C186.065 256.947 185.639 257.12 185.079 257.12C184.519 257.12 184.079 256.947 183.759 256.6C183.439 256.227 183.279 255.747 183.279 255.16C183.279 254.28 183.612 253.48 184.279 252.76C184.972 252.013 185.919 251.427 187.119 251C188.345 250.573 189.705 250.36 191.199 250.36C193.439 250.36 195.092 250.96 196.159 252.16C197.225 253.333 197.745 255.2 197.719 257.76L197.679 266.76C197.679 267.613 197.625 268.52 197.519 269.48L200.359 269.32V271H194.639C194.559 270.6 194.465 269.84 194.359 268.72C192.412 270.667 190.319 271.64 188.079 271.64ZM188.999 269.36C190.012 269.36 190.932 269.173 191.759 268.8C192.585 268.4 193.425 267.8 194.279 267C194.252 266.6 194.239 265.92 194.239 264.96L194.279 261.2C192.092 261.28 190.145 261.733 188.439 262.56C186.732 263.36 185.879 264.6 185.879 266.28C185.879 267.267 186.172 268.027 186.759 268.56C187.345 269.093 188.092 269.36 188.999 269.36ZM203.104 269.8C203.877 269.8 204.424 269.613 204.744 269.24C205.09 268.84 205.29 268.347 205.344 267.76C205.424 267.147 205.464 266.2 205.464 264.92V255.8C205.464 254.68 205.517 253.813 205.624 253.2L202.784 253.36V251.68C204.357 251.68 205.437 251.6 206.024 251.44C206.61 251.253 207.104 250.973 207.504 250.6H208.664C208.717 251 208.77 251.707 208.824 252.72C209.65 252 210.584 251.427 211.624 251C212.664 250.573 213.69 250.36 214.704 250.36C216.01 250.36 217.117 250.6 218.024 251.08C218.957 251.533 219.677 252.187 220.184 253.04C221.144 252.267 222.21 251.627 223.384 251.12C224.584 250.613 225.73 250.36 226.824 250.36C229.17 250.36 230.877 251.08 231.944 252.52C233.037 253.933 233.557 256.2 233.504 259.32L233.464 266.76C233.464 267.96 233.41 268.867 233.304 269.48L235.824 269.36V271H227.664V269.8C228.437 269.8 228.984 269.613 229.304 269.24C229.65 268.84 229.85 268.347 229.904 267.76C229.984 267.147 230.024 266.2 230.024 264.92V259.32C230.024 257.027 229.664 255.32 228.944 254.2C228.224 253.053 227.09 252.48 225.544 252.48C224.717 252.48 223.877 252.667 223.024 253.04C222.197 253.387 221.464 253.853 220.824 254.44C221.09 255.267 221.224 256.24 221.224 257.36L221.144 266.76C221.144 267.96 221.09 268.867 220.984 269.48L223.504 269.36V271H215.344V269.8C216.117 269.8 216.664 269.613 216.984 269.24C217.33 268.84 217.53 268.36 217.584 267.8C217.637 267.213 217.677 266.253 217.704 264.92L217.744 259.32C217.77 257 217.437 255.267 216.744 254.12C216.05 252.973 214.944 252.4 213.424 252.4C212.597 252.4 211.77 252.573 210.944 252.92C210.144 253.267 209.45 253.733 208.864 254.32L208.904 256.48V266.76C208.904 267.96 208.85 268.867 208.744 269.48L211.264 269.36V271H203.104V269.8ZM475.852 271.64C473.906 271.64 472.412 271.2 471.372 270.32C470.359 269.44 469.852 268.293 469.852 266.88C469.852 265.333 470.466 264.027 471.692 262.96C472.946 261.893 474.506 261.107 476.372 260.6C478.266 260.067 480.159 259.813 482.052 259.84V257.36C482.052 255.627 481.799 254.28 481.292 253.32C480.786 252.333 479.706 251.84 478.052 251.84C477.226 251.84 476.439 252.013 475.692 252.36C474.946 252.707 474.399 253.227 474.052 253.92C474.399 254.293 474.572 254.8 474.572 255.44C474.572 255.84 474.426 256.227 474.132 256.6C473.839 256.947 473.412 257.12 472.852 257.12C472.292 257.12 471.852 256.947 471.532 256.6C471.212 256.227 471.052 255.747 471.052 255.16C471.052 254.28 471.386 253.48 472.052 252.76C472.746 252.013 473.692 251.427 474.892 251C476.119 250.573 477.479 250.36 478.972 250.36C481.212 250.36 482.866 250.96 483.932 252.16C484.999 253.333 485.519 255.2 485.492 257.76L485.452 266.76C485.452 267.613 485.399 268.52 485.292 269.48L488.132 269.32V271H482.412C482.332 270.6 482.239 269.84 482.132 268.72C480.186 270.667 478.092 271.64 475.852 271.64ZM476.772 269.36C477.786 269.36 478.706 269.173 479.532 268.8C480.359 268.4 481.199 267.8 482.052 267C482.026 266.6 482.012 265.92 482.012 264.96L482.052 261.2C479.866 261.28 477.919 261.733 476.212 262.56C474.506 263.36 473.652 264.6 473.652 266.28C473.652 267.267 473.946 268.027 474.532 268.56C475.119 269.093 475.866 269.36 476.772 269.36ZM490.877 269.8C491.651 269.8 492.197 269.613 492.517 269.24C492.864 268.84 493.064 268.36 493.117 267.8C493.171 267.213 493.211 266.253 493.237 264.92L493.277 255.8C493.277 254.68 493.331 253.813 493.437 253.2L490.597 253.36V251.68C492.171 251.68 493.251 251.6 493.837 251.44C494.424 251.253 494.917 250.973 495.317 250.6H496.477C496.531 251.107 496.584 251.92 496.637 253.04C497.544 252.24 498.571 251.6 499.717 251.12C500.891 250.613 502.037 250.36 503.157 250.36C505.477 250.36 507.171 251.093 508.237 252.56C509.304 254 509.837 256.253 509.837 259.32V266.76C509.837 267.96 509.784 268.867 509.677 269.48L512.197 269.36V271H504.037V269.8C504.811 269.8 505.357 269.613 505.677 269.24C506.024 268.84 506.224 268.347 506.277 267.76C506.357 267.147 506.397 266.2 506.397 264.92V259.32C506.371 257.027 505.997 255.307 505.277 254.16C504.557 252.987 503.424 252.4 501.877 252.4C500.917 252.4 499.957 252.64 498.997 253.12C498.064 253.6 497.291 254.227 496.677 255C496.704 255.293 496.717 255.813 496.717 256.56L496.677 266.76C496.677 267.96 496.624 268.867 496.517 269.48L499.037 269.36V271H490.877V269.8ZM523.734 271.64C522.081 271.64 520.601 271.227 519.294 270.4C517.987 269.573 516.961 268.4 516.214 266.88C515.467 265.36 515.094 263.587 515.094 261.56C515.094 259.427 515.534 257.507 516.414 255.8C517.294 254.093 518.507 252.76 520.054 251.8C521.627 250.84 523.401 250.36 525.374 250.36C526.201 250.36 527.041 250.48 527.894 250.72C528.774 250.933 529.494 251.187 530.054 251.48V246C530.054 244.987 530.094 244.12 530.174 243.4L527.334 243.56V241.88C528.907 241.88 530.027 241.787 530.694 241.6C531.387 241.413 531.921 241.147 532.294 240.8H533.454V266.76C533.454 267.613 533.401 268.52 533.294 269.48L536.134 269.32V271H530.414C530.281 270.28 530.187 269.587 530.134 268.92C529.361 269.773 528.414 270.44 527.294 270.92C526.201 271.4 525.014 271.64 523.734 271.64ZM525.174 269.68C526.027 269.68 526.894 269.44 527.774 268.96C528.681 268.453 529.441 267.813 530.054 267.04C530.027 266.613 530.014 265.88 530.014 264.84L530.054 253.32C528.801 252.387 527.321 251.92 525.614 251.92C523.694 251.92 522.147 252.72 520.974 254.32C519.801 255.893 519.214 257.987 519.214 260.6C519.214 263.32 519.734 265.52 520.774 267.2C521.814 268.853 523.281 269.68 525.174 269.68ZM550.028 269.68C550.961 269.653 551.628 269.44 552.028 269.04C552.428 268.64 552.655 268.173 552.708 267.64C552.761 267.08 552.788 266.12 552.788 264.76V247.48C552.788 246.36 552.828 245.4 552.908 244.6L550.028 244.76V243H559.028V244.32C558.095 244.347 557.428 244.56 557.028 244.96C556.628 245.36 556.401 245.84 556.348 246.4C556.295 246.933 556.268 247.88 556.268 249.24V266.24C556.268 267.653 556.228 268.707 556.148 269.4L559.028 269.24V271H550.028V269.68ZM579.094 271.64C577.148 271.64 575.654 271.2 574.614 270.32C573.601 269.44 573.094 268.293 573.094 266.88C573.094 265.333 573.708 264.027 574.934 262.96C576.188 261.893 577.748 261.107 579.614 260.6C581.508 260.067 583.401 259.813 585.294 259.84V257.36C585.294 255.627 585.041 254.28 584.534 253.32C584.028 252.333 582.948 251.84 581.294 251.84C580.468 251.84 579.681 252.013 578.934 252.36C578.188 252.707 577.641 253.227 577.294 253.92C577.641 254.293 577.814 254.8 577.814 255.44C577.814 255.84 577.668 256.227 577.374 256.6C577.081 256.947 576.654 257.12 576.094 257.12C575.534 257.12 575.094 256.947 574.774 256.6C574.454 256.227 574.294 255.747 574.294 255.16C574.294 254.28 574.628 253.48 575.294 252.76C575.988 252.013 576.934 251.427 578.134 251C579.361 250.573 580.721 250.36 582.214 250.36C584.454 250.36 586.108 250.96 587.174 252.16C588.241 253.333 588.761 255.2 588.734 257.76L588.694 266.76C588.694 267.613 588.641 268.52 588.534 269.48L591.374 269.32V271H585.654C585.574 270.6 585.481 269.84 585.374 268.72C583.428 270.667 581.334 271.64 579.094 271.64ZM580.014 269.36C581.028 269.36 581.948 269.173 582.774 268.8C583.601 268.4 584.441 267.8 585.294 267C585.268 266.6 585.254 265.92 585.254 264.96L585.294 261.2C583.108 261.28 581.161 261.733 579.454 262.56C577.748 263.36 576.894 264.6 576.894 266.28C576.894 267.267 577.188 268.027 577.774 268.56C578.361 269.093 579.108 269.36 580.014 269.36ZM594.119 269.8C594.893 269.8 595.439 269.613 595.759 269.24C596.106 268.84 596.306 268.347 596.359 267.76C596.439 267.147 596.479 266.2 596.479 264.92V255.8C596.479 254.68 596.533 253.813 596.639 253.2L593.799 253.36V251.68C595.373 251.68 596.453 251.6 597.039 251.44C597.626 251.253 598.119 250.973 598.519 250.6H599.679C599.733 251 599.786 251.707 599.839 252.72C600.666 252 601.599 251.427 602.639 251C603.679 250.573 604.706 250.36 605.719 250.36C607.026 250.36 608.133 250.6 609.039 251.08C609.973 251.533 610.693 252.187 611.199 253.04C612.159 252.267 613.226 251.627 614.399 251.12C615.599 250.613 616.746 250.36 617.839 250.36C620.186 250.36 621.893 251.08 622.959 252.52C624.053 253.933 624.573 256.2 624.519 259.32L624.479 266.76C624.479 267.96 624.426 268.867 624.319 269.48L626.839 269.36V271H618.679V269.8C619.453 269.8 619.999 269.613 620.319 269.24C620.666 268.84 620.866 268.347 620.919 267.76C620.999 267.147 621.039 266.2 621.039 264.92V259.32C621.039 257.027 620.679 255.32 619.959 254.2C619.239 253.053 618.106 252.48 616.559 252.48C615.733 252.48 614.893 252.667 614.039 253.04C613.213 253.387 612.479 253.853 611.839 254.44C612.106 255.267 612.239 256.24 612.239 257.36L612.159 266.76C612.159 267.96 612.106 268.867 611.999 269.48L614.519 269.36V271H606.359V269.8C607.133 269.8 607.679 269.613 607.999 269.24C608.346 268.84 608.546 268.36 608.599 267.8C608.653 267.213 608.693 266.253 608.719 264.92L608.759 259.32C608.786 257 608.453 255.267 607.759 254.12C607.066 252.973 605.959 252.4 604.439 252.4C603.613 252.4 602.786 252.573 601.959 252.92C601.159 253.267 600.466 253.733 599.879 254.32L599.919 256.48V266.76C599.919 267.96 599.866 268.867 599.759 269.48L602.279 269.36V271H594.119V269.8ZM645.969 271.64C644.023 271.64 642.529 271.2 641.489 270.32C640.476 269.44 639.969 268.293 639.969 266.88C639.969 265.333 640.583 264.027 641.809 262.96C643.063 261.893 644.623 261.107 646.489 260.6C648.383 260.067 650.276 259.813 652.169 259.84V257.36C652.169 255.627 651.916 254.28 651.409 253.32C650.903 252.333 649.823 251.84 648.169 251.84C647.343 251.84 646.556 252.013 645.809 252.36C645.063 252.707 644.516 253.227 644.169 253.92C644.516 254.293 644.689 254.8 644.689 255.44C644.689 255.84 644.543 256.227 644.249 256.6C643.956 256.947 643.529 257.12 642.969 257.12C642.409 257.12 641.969 256.947 641.649 256.6C641.329 256.227 641.169 255.747 641.169 255.16C641.169 254.28 641.503 253.48 642.169 252.76C642.863 252.013 643.809 251.427 645.009 251C646.236 250.573 647.596 250.36 649.089 250.36C651.329 250.36 652.983 250.96 654.049 252.16C655.116 253.333 655.636 255.2 655.609 257.76L655.569 266.76C655.569 267.613 655.516 268.52 655.409 269.48L658.249 269.32V271H652.529C652.449 270.6 652.356 269.84 652.249 268.72C650.303 270.667 648.209 271.64 645.969 271.64ZM646.889 269.36C647.903 269.36 648.823 269.173 649.649 268.8C650.476 268.4 651.316 267.8 652.169 267C652.143 266.6 652.129 265.92 652.129 264.96L652.169 261.2C649.983 261.28 648.036 261.733 646.329 262.56C644.623 263.36 643.769 264.6 643.769 266.28C643.769 267.267 644.063 268.027 644.649 268.56C645.236 269.093 645.983 269.36 646.889 269.36ZM673.142 255.76C672.636 254.32 672.289 253.24 672.102 252.52L669.982 252.64V251H678.462V252.2C677.102 252.227 676.422 252.84 676.422 254.04C676.422 254.653 676.596 255.48 676.942 256.52L680.062 266L681.262 262.44C682.916 257.587 684.196 253.773 685.102 251H686.742L692.062 266.28L695.902 255.2C696.356 253.84 696.756 252.947 697.102 252.52L694.782 252.64V251H701.742V252.2C700.862 252.253 700.169 252.413 699.662 252.68C699.156 252.92 698.769 253.253 698.502 253.68C698.236 254.08 697.969 254.64 697.702 255.36L691.942 271.12H690.342L685.102 256L679.902 271.12H678.382L673.142 255.76ZM712.745 271.64C710.905 271.64 709.238 271.213 707.745 270.36C706.278 269.48 705.118 268.24 704.265 266.64C703.411 265.013 702.985 263.147 702.985 261.04C702.985 259.173 703.411 257.427 704.265 255.8C705.118 254.147 706.305 252.827 707.825 251.84C709.371 250.853 711.118 250.36 713.065 250.36C714.585 250.36 715.958 250.693 717.185 251.36C718.411 252.027 719.385 253.027 720.105 254.36C720.825 255.667 721.185 257.28 721.185 259.2L707.105 259.44C707.078 262.64 707.598 265.133 708.665 266.92C709.758 268.707 711.438 269.6 713.705 269.6C714.931 269.6 716.185 269.28 717.465 268.64C718.771 268 719.771 267.213 720.465 266.28L721.425 267.08C720.411 268.627 719.091 269.773 717.465 270.52C715.865 271.267 714.291 271.64 712.745 271.64ZM717.425 257.76C717.425 256.16 717.065 254.787 716.345 253.64C715.625 252.493 714.545 251.92 713.105 251.92C709.798 251.92 707.838 253.867 707.225 257.76H717.425ZM734.184 271.64C733.118 271.64 732.064 271.453 731.024 271.08C729.984 270.707 729.078 270.08 728.304 269.2L727.344 271H725.944L726.024 246C726.024 244.987 726.064 244.12 726.144 243.4L723.304 243.56V241.88C724.904 241.88 726.038 241.787 726.704 241.6C727.398 241.413 727.931 241.147 728.304 240.8H729.464V252.72C730.211 251.973 731.091 251.4 732.104 251C733.144 250.573 734.278 250.36 735.504 250.36C737.211 250.36 738.758 250.773 740.144 251.6C741.531 252.427 742.611 253.613 743.384 255.16C744.184 256.707 744.584 258.493 744.584 260.52C744.584 262.733 744.104 264.68 743.144 266.36C742.184 268.04 740.904 269.347 739.304 270.28C737.704 271.187 735.998 271.64 734.184 271.64ZM734.184 270C736.104 270 737.624 269.227 738.744 267.68C739.891 266.107 740.464 264.053 740.464 261.52C740.464 258.72 739.944 256.493 738.904 254.84C737.864 253.16 736.331 252.32 734.304 252.32C733.424 252.32 732.544 252.533 731.664 252.96C730.811 253.36 730.078 253.907 729.464 254.6V264.72C729.464 268.24 731.038 270 734.184 270ZM96.2 320.68C97.1333 320.653 97.8 320.44 98.2 320.04C98.6 319.64 98.8267 319.173 98.88 318.64C98.9333 318.08 98.96 317.12 98.96 315.76V298.48C98.96 297.36 99 296.4 99.08 295.6L96.2 295.76V294L105.64 293.96C110.653 293.933 114.627 295.107 117.56 297.48C120.493 299.853 121.96 303.373 121.96 308.04C121.96 310.547 121.373 312.867 120.2 315C119.027 317.133 117.293 318.84 115 320.12C112.707 321.373 109.947 322 106.72 322H96.2V320.68ZM106.6 320.48C108.84 320.48 110.827 319.933 112.56 318.84C114.293 317.747 115.64 316.24 116.6 314.32C117.56 312.4 118.04 310.253 118.04 307.88C118.04 303.987 116.973 300.947 114.84 298.76C112.707 296.547 109.493 295.44 105.2 295.44C104.267 295.44 103.6 295.627 103.2 296C102.8 296.373 102.573 296.84 102.52 297.4C102.467 297.933 102.44 298.88 102.44 300.24V317.28C102.44 318.667 102.4 319.707 102.32 320.4C103.253 320.453 104.68 320.48 106.6 320.48ZM135.245 322.64C133.405 322.64 131.738 322.213 130.245 321.36C128.778 320.48 127.618 319.24 126.765 317.64C125.911 316.013 125.485 314.147 125.485 312.04C125.485 310.173 125.911 308.427 126.765 306.8C127.618 305.147 128.805 303.827 130.325 302.84C131.871 301.853 133.618 301.36 135.565 301.36C137.085 301.36 138.458 301.693 139.685 302.36C140.911 303.027 141.885 304.027 142.605 305.36C143.325 306.667 143.685 308.28 143.685 310.2L129.605 310.44C129.578 313.64 130.098 316.133 131.165 317.92C132.258 319.707 133.938 320.6 136.205 320.6C137.431 320.6 138.685 320.28 139.965 319.64C141.271 319 142.271 318.213 142.965 317.28L143.925 318.08C142.911 319.627 141.591 320.773 139.965 321.52C138.365 322.267 136.791 322.64 135.245 322.64ZM139.925 308.76C139.925 307.16 139.565 305.787 138.845 304.64C138.125 303.493 137.045 302.92 135.605 302.92C132.298 302.92 130.338 304.867 129.725 308.76H139.925ZM148.929 309.08C147.862 306.627 147.302 304.773 147.249 303.52L145.529 303.64V302H152.889V303.2C151.716 303.2 151.129 303.693 151.129 304.68C151.129 305.4 151.409 306.387 151.969 307.64L155.049 314.68C155.396 315.507 155.796 316.493 156.249 317.64H156.289C156.369 317.373 156.476 317.08 156.609 316.76L157.209 315.04L160.409 306.28C160.676 305.507 161.076 304.587 161.609 303.52L159.049 303.64V302H165.369V303.2C164.809 303.2 164.329 303.4 163.929 303.8C163.529 304.173 163.156 304.707 162.809 305.4C162.489 306.093 162.049 307.16 161.489 308.6L156.249 322.12H154.649L148.929 309.08ZM176.729 322.64C174.889 322.64 173.222 322.213 171.729 321.36C170.262 320.48 169.102 319.24 168.249 317.64C167.396 316.013 166.969 314.147 166.969 312.04C166.969 310.173 167.396 308.427 168.249 306.8C169.102 305.147 170.289 303.827 171.809 302.84C173.356 301.853 175.102 301.36 177.049 301.36C178.569 301.36 179.942 301.693 181.169 302.36C182.396 303.027 183.369 304.027 184.089 305.36C184.809 306.667 185.169 308.28 185.169 310.2L171.089 310.44C171.062 313.64 171.582 316.133 172.649 317.92C173.742 319.707 175.422 320.6 177.689 320.6C178.916 320.6 180.169 320.28 181.449 319.64C182.756 319 183.756 318.213 184.449 317.28L185.409 318.08C184.396 319.627 183.076 320.773 181.449 321.52C179.849 322.267 178.276 322.64 176.729 322.64ZM181.409 308.76C181.409 307.16 181.049 305.787 180.329 304.64C179.609 303.493 178.529 302.92 177.089 302.92C173.782 302.92 171.822 304.867 171.209 308.76H181.409ZM188.329 320.8C189.102 320.8 189.649 320.613 189.969 320.24C190.315 319.84 190.515 319.347 190.569 318.76C190.649 318.147 190.689 317.2 190.689 315.92V297C190.689 295.987 190.729 295.12 190.809 294.4L187.969 294.56V292.88C189.569 292.88 190.702 292.787 191.369 292.6C192.062 292.413 192.595 292.147 192.969 291.8H194.129L194.169 317.76C194.169 318.8 194.102 319.707 193.969 320.48L196.489 320.36V322H188.329V320.8ZM209.547 322.64C207.707 322.64 206.014 322.213 204.467 321.36C202.947 320.48 201.734 319.267 200.827 317.72C199.947 316.173 199.507 314.427 199.507 312.48C199.507 310.4 199.947 308.52 200.827 306.84C201.707 305.133 202.907 303.8 204.427 302.84C205.974 301.853 207.681 301.36 209.547 301.36C211.387 301.36 213.081 301.813 214.627 302.72C216.174 303.6 217.387 304.813 218.267 306.36C219.174 307.907 219.627 309.627 219.627 311.52C219.627 313.547 219.174 315.413 218.267 317.12C217.387 318.827 216.174 320.173 214.627 321.16C213.107 322.147 211.414 322.64 209.547 322.64ZM209.867 321.04C211.814 321.04 213.241 320.24 214.147 318.64C215.081 317.04 215.547 315.053 215.547 312.68C215.547 309.987 215.041 307.68 214.027 305.76C213.041 303.84 211.547 302.88 209.547 302.88C207.574 302.88 206.081 303.693 205.067 305.32C204.081 306.947 203.587 308.947 203.587 311.32C203.587 313.027 203.814 314.627 204.267 316.12C204.747 317.587 205.454 318.773 206.387 319.68C207.347 320.587 208.507 321.04 209.867 321.04ZM222.666 331C223.439 331 223.986 330.8 224.306 330.4C224.652 330.027 224.852 329.547 224.906 328.96C224.959 328.4 224.999 327.453 225.026 326.12L225.106 306.8C225.106 305.68 225.159 304.813 225.266 304.2L222.426 304.36V302.68C223.999 302.68 225.079 302.6 225.666 302.44C226.252 302.253 226.732 301.973 227.106 301.6H228.306C228.412 302.907 228.466 303.627 228.466 303.76C229.266 303.04 230.226 302.467 231.346 302.04C232.466 301.587 233.572 301.36 234.666 301.36C236.239 301.36 237.692 301.773 239.026 302.6C240.359 303.4 241.426 304.56 242.226 306.08C243.052 307.573 243.466 309.307 243.466 311.28C243.466 313.493 242.999 315.467 242.066 317.2C241.132 318.907 239.879 320.24 238.306 321.2C236.759 322.16 235.079 322.64 233.266 322.64C231.426 322.64 229.826 322.2 228.466 321.32V327.96C228.466 329.16 228.412 330.067 228.306 330.68L230.826 330.56V332.2H222.666V331ZM233.186 321.04C234.439 321.04 235.519 320.653 236.426 319.88C237.359 319.107 238.079 318.027 238.586 316.64C239.092 315.253 239.346 313.68 239.346 311.92C239.346 309.52 238.826 307.493 237.786 305.84C236.772 304.16 235.252 303.32 233.226 303.32C232.346 303.32 231.492 303.533 230.666 303.96C229.839 304.387 229.119 304.92 228.506 305.56C228.532 305.747 228.546 306.56 228.546 308L228.506 319.48C229.866 320.52 231.426 321.04 233.186 321.04ZM256.573 322.64C254.733 322.64 253.066 322.213 251.573 321.36C250.106 320.48 248.946 319.24 248.093 317.64C247.239 316.013 246.813 314.147 246.813 312.04C246.813 310.173 247.239 308.427 248.093 306.8C248.946 305.147 250.133 303.827 251.653 302.84C253.199 301.853 254.946 301.36 256.893 301.36C258.413 301.36 259.786 301.693 261.013 302.36C262.239 303.027 263.213 304.027 263.933 305.36C264.653 306.667 265.013 308.28 265.013 310.2L250.933 310.44C250.906 313.64 251.426 316.133 252.493 317.92C253.586 319.707 255.266 320.6 257.533 320.6C258.759 320.6 260.013 320.28 261.293 319.64C262.599 319 263.599 318.213 264.293 317.28L265.253 318.08C264.239 319.627 262.919 320.773 261.293 321.52C259.693 322.267 258.119 322.64 256.573 322.64ZM261.253 308.76C261.253 307.16 260.893 305.787 260.173 304.64C259.453 303.493 258.373 302.92 256.933 302.92C253.626 302.92 251.666 304.867 251.053 308.76H261.253ZM268.573 320.8C269.346 320.8 269.893 320.613 270.213 320.24C270.559 319.84 270.759 319.347 270.813 318.76C270.893 318.147 270.933 317.2 270.933 315.92V306.8C270.933 305.68 270.986 304.813 271.093 304.2L268.253 304.32V302.68H269.493C270.506 302.68 271.239 302.6 271.693 302.44C272.146 302.253 272.573 301.973 272.973 301.6H274.133C274.239 302.64 274.306 303.96 274.333 305.56C274.999 304.467 275.946 303.493 277.173 302.64C278.426 301.787 279.719 301.36 281.053 301.36C281.853 301.36 282.519 301.573 283.053 302C283.586 302.427 283.853 303.053 283.853 303.88C283.853 304.307 283.679 304.733 283.333 305.16C283.013 305.587 282.546 305.8 281.933 305.8C281.346 305.8 280.866 305.587 280.493 305.16C280.119 304.707 279.973 304.173 280.053 303.56C279.039 303.533 278.013 303.92 276.973 304.72C275.959 305.52 275.093 306.587 274.373 307.92L274.413 317.76C274.413 318.96 274.359 319.867 274.253 320.48L276.773 320.36V322H268.573V320.8Z" fill="#8C43FF"/>
<path d="M255.038 244.28C253.358 244.333 252.064 244.973 251.158 246.2C250.278 247.427 249.838 249.547 249.838 252.56C249.838 253.547 249.931 254.24 250.118 254.64C250.304 255.013 250.398 255.227 250.398 255.28C248.958 255.28 247.878 254.987 247.158 254.4C246.464 253.787 246.118 252.787 246.118 251.4C246.118 249.507 246.584 247.787 247.518 246.24C248.451 244.667 249.931 243.4 251.958 242.44C254.011 241.48 256.611 241 259.758 241C260.398 241 261.251 241.067 262.318 241.2C264.238 241.387 265.598 241.48 266.398 241.48C267.811 241.48 269.011 241.32 269.998 241C269.918 241.24 269.771 241.773 269.558 242.6C269.344 243.4 268.958 244.093 268.398 244.68C267.864 245.24 267.131 245.613 266.198 245.8C264.624 245.8 262.758 245.547 260.598 245.04L258.918 253H264.758L264.118 255.96H258.278L255.038 271H249.278L255.038 244.28ZM268.917 271.24C267.397 271.24 266.131 270.72 265.117 269.68C264.104 268.64 263.597 267.013 263.597 264.8C263.597 262.827 263.984 260.76 264.757 258.6C265.557 256.413 266.731 254.573 268.277 253.08C269.851 251.56 271.717 250.8 273.877 250.8C274.971 250.8 275.784 250.987 276.317 251.36C276.851 251.733 277.117 252.227 277.117 252.84V253.12L277.557 251H283.317L280.437 264.6C280.331 265 280.277 265.427 280.277 265.88C280.277 267.027 280.824 267.6 281.917 267.6C282.664 267.6 283.304 267.253 283.837 266.56C284.397 265.867 284.837 264.96 285.157 263.84H286.837C285.851 266.72 284.624 268.68 283.157 269.72C281.717 270.733 280.264 271.24 278.797 271.24C277.677 271.24 276.771 270.933 276.077 270.32C275.411 269.68 275.011 268.76 274.877 267.56C274.104 268.653 273.237 269.547 272.277 270.24C271.344 270.907 270.224 271.24 268.917 271.24ZM271.517 267.36C272.184 267.36 272.837 267.053 273.477 266.44C274.144 265.8 274.597 264.933 274.837 263.84L276.757 254.8C276.757 254.453 276.624 254.12 276.357 253.8C276.091 253.453 275.677 253.28 275.117 253.28C274.051 253.28 273.091 253.907 272.237 255.16C271.384 256.387 270.717 257.88 270.237 259.64C269.757 261.373 269.517 262.907 269.517 264.24C269.517 265.573 269.704 266.427 270.077 266.8C270.477 267.173 270.957 267.36 271.517 267.36ZM292.252 281C290.972 281 289.905 280.667 289.052 280C288.199 279.333 287.772 278.373 287.772 277.12C287.772 275.6 288.385 274.373 289.612 273.44C290.839 272.533 292.399 271.773 294.292 271.16L294.772 269.04C293.412 270.507 291.812 271.24 289.972 271.24C288.452 271.24 287.185 270.72 286.172 269.68C285.159 268.64 284.652 267.013 284.652 264.8C284.652 262.827 285.039 260.76 285.812 258.6C286.612 256.413 287.785 254.573 289.332 253.08C290.905 251.56 292.772 250.8 294.932 250.8C296.025 250.8 296.839 250.987 297.372 251.36C297.905 251.733 298.172 252.227 298.172 252.84V253.08L298.612 251H304.372L300.412 269.56C301.692 269.133 302.719 268.493 303.492 267.64C304.265 266.787 304.919 265.52 305.452 263.84H307.132C306.412 266.213 305.439 267.96 304.212 269.08C302.985 270.173 301.599 270.92 300.052 271.32L299.452 274.2C298.919 276.787 297.999 278.56 296.692 279.52C295.385 280.507 293.905 281 292.252 281ZM292.572 267.36C293.185 267.36 293.812 267.08 294.452 266.52C295.092 265.96 295.532 265.2 295.772 264.24L297.812 254.76C297.812 254.44 297.679 254.12 297.412 253.8C297.145 253.453 296.732 253.28 296.172 253.28C295.105 253.28 294.145 253.907 293.292 255.16C292.439 256.387 291.772 257.88 291.292 259.64C290.812 261.373 290.572 262.907 290.572 264.24C290.572 265.573 290.759 266.427 291.132 266.8C291.532 267.173 292.012 267.36 292.572 267.36ZM291.332 277.88C291.785 277.88 292.225 277.573 292.652 276.96C293.079 276.347 293.412 275.467 293.652 274.32L293.892 273.16C291.279 274.12 289.972 275.253 289.972 276.56C289.972 276.907 290.092 277.213 290.332 277.48C290.572 277.747 290.905 277.88 291.332 277.88ZM319.885 271.24C318.259 271.24 317.059 270.813 316.285 269.96C315.539 269.08 315.165 268 315.165 266.72C315.165 266.16 315.232 265.533 315.365 264.84C315.499 264.12 315.632 263.427 315.765 262.76C315.925 262.093 316.032 261.667 316.085 261.48C316.299 260.547 316.499 259.627 316.685 258.72C316.872 257.813 316.965 257.08 316.965 256.52C316.965 255.16 316.485 254.48 315.525 254.48C314.832 254.48 314.219 254.827 313.685 255.52C313.152 256.187 312.725 257.067 312.405 258.16L309.685 271H303.925L308.165 251H313.925L313.485 253.08C314.819 251.587 316.379 250.84 318.165 250.84C319.525 250.84 320.605 251.213 321.405 251.96C322.205 252.707 322.605 253.84 322.605 255.36C322.605 256.133 322.512 257 322.325 257.96C322.139 258.893 321.872 260.04 321.525 261.4C321.312 262.227 321.112 263.04 320.925 263.84C320.765 264.613 320.685 265.227 320.685 265.68C320.685 266.213 320.805 266.627 321.045 266.92C321.285 267.213 321.699 267.36 322.285 267.36C323.085 267.36 323.725 267.08 324.205 266.52C324.685 265.933 325.165 265.04 325.645 263.84H327.325C326.339 266.773 325.192 268.747 323.885 269.76C322.605 270.747 321.272 271.24 319.885 271.24ZM331.361 271.24C329.387 271.24 327.854 270.733 326.761 269.72C325.667 268.68 325.121 267.067 325.121 264.88C325.121 263.04 325.481 261.013 326.201 258.8C326.921 256.587 328.094 254.68 329.721 253.08C331.347 251.453 333.414 250.64 335.921 250.64C338.854 250.64 340.321 251.92 340.321 254.48C340.321 255.973 339.894 257.347 339.041 258.6C338.187 259.853 337.054 260.867 335.641 261.64C334.227 262.387 332.721 262.813 331.121 262.92C331.067 263.72 331.041 264.253 331.041 264.52C331.041 265.827 331.267 266.72 331.721 267.2C332.174 267.653 332.907 267.88 333.921 267.88C335.361 267.88 336.587 267.547 337.601 266.88C338.641 266.213 339.774 265.2 341.001 263.84H342.361C339.401 268.773 335.734 271.24 331.361 271.24ZM331.441 261C332.427 260.947 333.361 260.6 334.241 259.96C335.147 259.32 335.867 258.507 336.401 257.52C336.961 256.533 337.241 255.493 337.241 254.4C337.241 253.307 336.907 252.76 336.241 252.76C335.281 252.76 334.334 253.6 333.401 255.28C332.494 256.96 331.841 258.867 331.441 261ZM343.712 251H349.472L348.952 253.48C349.859 252.68 350.672 252.067 351.392 251.64C352.139 251.213 352.939 251 353.792 251C354.646 251 355.312 251.293 355.792 251.88C356.299 252.467 356.552 253.173 356.552 254C356.552 254.773 356.299 255.453 355.792 256.04C355.286 256.627 354.579 256.92 353.672 256.92C353.086 256.92 352.686 256.787 352.472 256.52C352.286 256.227 352.139 255.813 352.032 255.28C351.952 254.933 351.872 254.68 351.792 254.52C351.712 254.36 351.566 254.28 351.352 254.28C350.792 254.28 350.312 254.4 349.912 254.64C349.539 254.853 349.046 255.24 348.432 255.8L345.232 271H339.472L343.712 251ZM374.423 243.6C372.61 244.24 371.223 245.253 370.263 246.64C369.33 248 368.863 249.653 368.863 251.6C368.863 252.453 368.956 253.24 369.143 253.96C369.33 254.653 369.596 255.227 369.943 255.68C368.236 255.68 366.97 255.333 366.143 254.64C365.343 253.92 364.943 252.827 364.943 251.36C364.943 249.493 365.49 247.76 366.583 246.16C367.676 244.533 369.156 243.24 371.023 242.28C372.89 241.32 374.916 240.84 377.103 240.84C377.716 240.84 378.25 240.88 378.703 240.96C379.156 241.04 379.676 241.187 380.263 241.4L385.063 262.8L389.543 241.08H393.423L386.903 271H381.383L376.743 251.16L372.183 271H368.383L374.423 243.6ZM395.382 271.24C394.102 271.24 393.062 270.84 392.262 270.04C391.489 269.24 391.102 268.04 391.102 266.44C391.102 265.773 391.209 264.907 391.422 263.84L394.142 251H399.902L397.022 264.6C396.942 265 396.902 265.373 396.902 265.72C396.902 266.813 397.302 267.36 398.102 267.36C398.849 267.36 399.489 267.053 400.022 266.44C400.555 265.8 400.982 264.933 401.302 263.84L404.022 251H409.782L406.902 264.6C406.795 265 406.742 265.427 406.742 265.88C406.742 266.413 406.862 266.8 407.102 267.04C407.369 267.253 407.795 267.36 408.382 267.36C409.129 267.36 409.769 267.04 410.302 266.4C410.862 265.76 411.302 264.907 411.622 263.84H413.302C412.315 266.72 411.089 268.68 409.622 269.72C408.182 270.733 406.729 271.24 405.262 271.24C404.115 271.24 403.195 270.92 402.502 270.28C401.835 269.64 401.435 268.693 401.302 267.44C400.395 268.907 399.435 269.907 398.422 270.44C397.435 270.973 396.422 271.24 395.382 271.24ZM426.057 271.24C424.431 271.24 423.231 270.813 422.457 269.96C421.711 269.08 421.337 268 421.337 266.72C421.337 266.16 421.404 265.533 421.537 264.84C421.671 264.12 421.804 263.427 421.937 262.76C422.097 262.093 422.204 261.667 422.257 261.48C422.471 260.547 422.671 259.627 422.857 258.72C423.044 257.813 423.137 257.08 423.137 256.52C423.137 255.16 422.657 254.48 421.697 254.48C421.004 254.48 420.391 254.827 419.857 255.52C419.324 256.187 418.897 257.067 418.577 258.16L415.857 271H410.097L414.337 251H420.097L419.657 253.08C420.991 251.587 422.551 250.84 424.337 250.84C425.697 250.84 426.777 251.213 427.577 251.96C428.377 252.707 428.777 253.84 428.777 255.36C428.777 256.133 428.684 257 428.497 257.96C428.311 258.893 428.044 260.04 427.697 261.4C427.484 262.227 427.284 263.04 427.097 263.84C426.937 264.613 426.857 265.227 426.857 265.68C426.857 266.213 426.977 266.627 427.217 266.92C427.457 267.213 427.871 267.36 428.457 267.36C429.257 267.36 429.897 267.08 430.377 266.52C430.857 265.933 431.337 265.04 431.817 263.84H433.497C432.511 266.773 431.364 268.747 430.057 269.76C428.777 270.747 427.444 271.24 426.057 271.24ZM437.533 271.24C435.559 271.24 434.026 270.733 432.933 269.72C431.839 268.68 431.292 267.067 431.292 264.88C431.292 263.04 431.652 261.013 432.373 258.8C433.093 256.587 434.266 254.68 435.893 253.08C437.519 251.453 439.586 250.64 442.092 250.64C445.026 250.64 446.493 251.92 446.493 254.48C446.493 255.973 446.066 257.347 445.213 258.6C444.359 259.853 443.226 260.867 441.812 261.64C440.399 262.387 438.893 262.813 437.293 262.92C437.239 263.72 437.213 264.253 437.213 264.52C437.213 265.827 437.439 266.72 437.893 267.2C438.346 267.653 439.079 267.88 440.093 267.88C441.533 267.88 442.759 267.547 443.773 266.88C444.813 266.213 445.946 265.2 447.173 263.84H448.533C445.573 268.773 441.906 271.24 437.533 271.24ZM437.613 261C438.599 260.947 439.533 260.6 440.413 259.96C441.319 259.32 442.039 258.507 442.573 257.52C443.133 256.533 443.413 255.493 443.413 254.4C443.413 253.307 443.079 252.76 442.413 252.76C441.453 252.76 440.506 253.6 439.573 255.28C438.666 256.96 438.013 258.867 437.613 261ZM451.724 271.24C450.444 271.24 449.364 271 448.484 270.52C447.604 270.013 446.951 269.373 446.524 268.6C446.097 267.8 445.884 266.973 445.884 266.12C445.884 265.24 446.097 264.48 446.524 263.84C446.924 263.173 447.417 262.693 448.004 262.4C449.044 260.533 449.951 258.653 450.724 256.76C451.497 254.84 452.231 252.773 452.924 250.56L458.844 249.76C458.977 253.173 459.204 256.867 459.524 260.84C459.657 262.44 459.724 263.6 459.724 264.32C459.724 265.947 459.311 267.28 458.484 268.32C457.657 269.36 456.631 270.107 455.404 270.56C454.204 271.013 452.977 271.24 451.724 271.24ZM450.444 268.08C451.431 268.08 452.257 267.787 452.924 267.2C453.591 266.613 453.924 265.667 453.924 264.36C453.924 263.56 453.844 262.44 453.684 261C453.417 257.96 453.244 255.92 453.164 254.88C452.524 256.987 451.444 259.507 449.924 262.44C450.537 262.76 450.844 263.227 450.844 263.84C450.844 264.347 450.671 264.8 450.324 265.2C450.004 265.6 449.591 265.8 449.084 265.8C448.524 265.8 448.164 265.627 448.004 265.28C448.004 266.24 448.191 266.947 448.564 267.4C448.964 267.853 449.591 268.08 450.444 268.08Z" fill="#FF5151"/>
</svg>
