<svg width="218" height="157" viewBox="0 0 218 157" fill="none" xmlns="http://www.w3.org/2000/svg">
<path d="M109 157C169.199 157 218 121.854 218 78.5C218 35.1456 169.199 0 109 0C48.801 0 0 35.1456 0 78.5C0 121.854 48.801 157 109 157Z" fill="url(#paint0_linear)"/>
<path d="M109.515 112.125C109.343 112.125 109.172 112.248 109 112.248C108.828 112.248 108.657 112.125 108.485 112.125H109.515Z" fill="#84DBFF"/>
<path d="M193.625 127.949C173.713 145.627 143.159 157 109 157C74.841 157 44.2866 145.627 24.3748 127.949C38.6221 114.227 60.4221 107.428 78.274 104.09C76.9008 112.249 82.737 123.128 82.9087 122.88C88.9165 112.991 109 112.125 109 112.125C109 112.125 129.083 112.991 134.92 122.88C135.091 123.128 141.099 112.249 139.554 104.09C157.578 107.428 179.55 114.227 193.625 127.949Z" fill="#84DBFF"/>
<path d="M133.547 96.4252C133.547 96.4252 133.547 96.4252 133.547 96.5488C133.547 97.785 132.688 105.697 109.515 112.002H108.485C85.3119 105.697 84.4536 97.785 84.4536 96.5488C84.4536 96.4252 84.4536 96.4252 84.4536 96.4252C84.4536 94.8181 84.9686 93.211 85.4835 91.6039C92.178 97.6614 100.246 101.741 109 101.741C117.754 101.741 125.822 97.6614 132.517 91.6039C133.032 93.211 133.547 94.8181 133.547 96.4252Z" fill="white"/>
<path d="M133.546 96.4252C133.546 96.4252 134.748 105.326 109 112.249C109 112.249 129.083 113.114 134.92 123.004C135.263 123.251 146.764 101.741 133.546 96.4252Z" fill="#54C0EB"/>
<path d="M84.4535 96.4252C71.2362 101.741 82.737 123.251 83.0803 122.88C89.0882 112.991 109 112.125 109 112.125C83.252 105.326 84.4535 96.4252 84.4535 96.4252Z" fill="#54C0EB"/>
<path d="M145.047 65.1488C143.502 72.8134 138.868 79.9834 131.143 85.4228C129.598 86.5354 128.225 87.4008 126.509 88.2661L123.762 81.9614H94.2378L91.4914 88.2661C85.9985 85.2992 74.4977 77.0165 74.326 69.2283C69.5197 24.848 116.724 34.2433 116.724 34.2433C148.48 32.6362 147.45 52.7866 145.047 65.1488Z" fill="white"/>
<path d="M151.398 73.1842C148.995 76.0276 145.734 78.0055 142.644 78.7472C143.846 76.7693 144.876 74.6677 145.734 72.5661C145.734 72.5661 145.734 72.5661 145.734 72.4425C146.42 70.5882 147.107 68.7339 147.794 66.8795H147.622C148.309 65.0252 148.995 63.1709 149.51 61.3165C150.197 61.3165 150.883 61.5638 151.57 61.811C155.346 63.5417 155.175 68.6102 151.398 73.1842Z" fill="white"/>
<path d="M75.3559 78.7472C72.2662 78.0055 69.0048 76.0275 66.6016 73.1842C62.6536 68.6102 62.6536 63.5417 66.43 61.9346C66.7733 61.811 66.9449 61.6874 67.2882 61.6874C69.3481 67.4976 71.7512 71.8244 72.2662 72.6897C73.1244 74.6677 74.1544 76.7693 75.3559 78.7472Z" fill="white"/>
<path d="M127.71 21.8811C129.083 10.5079 104.022 11.2496 104.022 11.2496C66.0866 15.2055 61.9669 40.6717 61.9669 40.6717L67.1165 36.2213C59.0488 48.9543 71.2362 70.8354 72.2661 72.5662C78.6173 87.7717 92.6929 101.741 109 101.741C125.307 101.741 139.383 87.7717 145.734 72.5662C145.734 72.5662 145.734 72.5662 145.734 72.4425C146.42 70.5882 147.107 68.7339 147.622 66.8795H147.45C150.883 56.9898 154.66 46.9764 154.66 46.9764C164.444 11.4969 127.71 21.8811 127.71 21.8811ZM145.047 65.1488C143.502 72.8134 138.868 79.9835 131.143 85.4229C129.598 86.5354 128.054 87.4008 126.509 88.2662L123.762 82.0851H94.2378L91.4913 88.3898C85.9984 85.4229 81.3638 81.3433 77.5874 76.6457C75.8709 74.1732 74.8409 71.5772 74.326 69.352C69.5197 24.9717 116.724 34.3669 116.724 34.3669C148.48 32.6362 147.45 52.7866 145.047 65.1488Z" fill="#324A5E"/>
<path d="M127.71 21.8811C129.083 10.5079 104.022 11.2496 104.022 11.2496C66.0866 15.2055 61.9669 40.6717 61.9669 40.6717L67.1165 36.2213C59.0488 48.9543 71.2362 70.8354 72.2661 72.5662C78.6173 87.7717 92.6929 101.741 109 101.741C125.307 101.741 139.383 87.7717 145.734 72.5662C145.734 72.5662 145.734 72.5662 145.734 72.4425C146.42 70.5882 147.107 68.7339 147.622 66.8795H147.45C150.883 56.9898 154.66 46.9764 154.66 46.9764C164.444 11.4969 127.71 21.8811 127.71 21.8811ZM145.047 65.1488C143.502 72.8134 138.868 79.9835 131.143 85.4229C129.598 86.5354 128.054 87.4008 126.509 88.2662L123.762 82.0851H94.2378L91.4913 88.3898C85.9984 85.4229 81.3638 81.3433 77.5874 76.6457C75.8709 74.1732 74.8409 71.5772 74.326 69.352C69.5197 24.9717 116.724 34.3669 116.724 34.3669C148.48 32.6362 147.45 52.7866 145.047 65.1488Z" fill="#324A5E"/>
<path d="M96.9843 86.2882C99.9024 88.637 104.194 90.2441 109 90.2441C113.806 90.2441 118.098 88.7607 121.016 86.2882H96.9843Z" fill="white"/>
<defs>
    <linearGradient id="paint0_linear" x1="22.3253" y1="37.57" x2="141.745" y2="169.532" gradientUnits="userSpaceOnUse">
        <stop stop-color="#FF5151"/>
        <stop offset="1" stop-color="#8C43FF" stop-opacity="0.99"/>
    </linearGradient>
</defs>
</svg>
